<svg width="89" height="104" xmlns="http://www.w3.org/2000/svg" viewBox="0 0 89 104"><path d="M62.506 90.59C68.322 88.753 72 86.042 72 83.018 72 77.485 59.688 73 44.5 73S17 77.485 17 83.018s12.667 10.018 27.855 10.018V96s11.076-3.289 17.65-5.41z" fill="url(#a)" filter="url(#b)"/><path d="M67.089 88.12C74.385 86.123 79 83.176 79 79.89 79 73.874 63.554 69 44.5 69 25.446 69 10 73.875 10 79.89c0 6.013 15.892 10.888 34.945 10.888V94s13.895-3.575 22.144-5.88z" fill="url(#c)" filter="url(#d)"/><path d="M71.838 73.42c8.843-7.667 14.436-18.983 14.436-31.606C86.274 18.721 67.554 0 44.46 0 21.367 0 2.646 18.72 2.646 41.814c0 23.093 19.26 41.814 42.354 41.814V96s16.84-13.728 26.838-22.58z" fill="#fff"/><path d="M69.84 41.595C69.84 55.625 58.378 67 44.24 67c-14.139 0-25.6-11.374-25.6-25.405 0-14.03 11.462-25.405 25.6-25.405 14.139 0 25.6 11.374 25.6 25.405z" fill="#FDC305"/><path d="M58.892 50.762c-.8-1.17-3.46-1.666-5.27-1.865-6.622 1.865-10.82 2.252-16.97-.05a6.095 6.095 0 0 0-4.38 1.29 18.248 18.248 0 0 0-2.65 2.341l-.531-3.829s-.15-2.242-2.27-2.103a38.924 38.924 0 0 0-5.63 1.101s.25-4.106-5-4.632A46.196 46.196 0 0 0 8 42.777s9.55-6.507 15-9.324c6.5-3.36 38-5.679 41.463-3.958a43.672 43.672 0 0 1 13.7 10.653c-11.18-2.49-11.46 7.222-11.46 7.222-8.1-3.73-7.81 3.392-7.81 3.392z" fill="#F06351"/><path d="M50.051 66.306c.325-.344.604-.727.83-1.141.7-1.25 1.85-5.763 2.4-9.989.17-1.294.288-3.485.31-4.414.12-4.9-.1-11.308-.1-13.004 0-1.963.175-2.147.995-3.01.121-.126.256-.268.406-.432 1.35-1.518 6.46-5 7.18-4.96.72.04 2.65 3.442 2.65 3.442s.04.903.19 2.192c.15 1.29 1.06 1.002 1.5.576v-.01a6.17 6.17 0 0 0 .87-1.825 27.714 27.714 0 0 0-1.83-2.976c-.19-.29-1.526-1.948-2.244-2.838-.317-.394-.604-.906-1.176-.892-2.815.15-5.576.823-8.14 1.984v-1.815a83.028 83.028 0 0 0-20.241 1.329l-.05 2.252s-6.17-.328-7.28-.427c-1.11-.099-1.25.238-1.25.238-.832.847-1.448 1.846-2.07 2.867a22.56 22.56 0 0 0-1.82 3.71c-.63 1.676-.51 3.105.29 3.105s2.05.05 2-.427a7.041 7.041 0 0 0-.48-1.438 5.065 5.065 0 0 1 1.73-3.82c1.182-1.039 2.564-1.02 4-.624 1.4.387 5.21 1.815 5.21 1.815l2.71 13.064 1 5.783 1.18 5.307c.52 2.43 1.11 4.721 1.69 6.794.547 1.955 3.39 7.378 3.989 6.778 1-1-.382-2.674-.639-6.51-.16-2.39-.28-4.533-.28-4.533 0-4.036 7.15-6.5 6.86-4.037-.104 1.402-.48 3.31-.81 4.983-.175.894-.339 1.72-.44 2.367-.045.25-.045.505 0 .754.309.476.692-.04.86-.218z" fill="#fff"/><path d="M44.262 45.99c2.07 0 3.75-1.665 3.75-3.719s-1.68-3.72-3.75-3.72c-2.072 0-3.75 1.666-3.75 3.72 0 2.054 1.678 3.72 3.75 3.72z" fill="#FDC305"/><path d="m49.232 39.246-3.13 1.3 1.15-5.585-7.5 9.68 3.13-1.298-1.15 5.594 7.5-9.691zm-7.39 3.799 4.16-5.366-.81 3.967 2-.813-4.19 5.376.81-3.968-1.97.804zm-1.4-1.458c.618 0 1.12-.498 1.12-1.111 0-.614-.502-1.111-1.12-1.111-.619 0-1.12.497-1.12 1.11 0 .614.501 1.112 1.12 1.112zm6.52 4.027c.436 0 .79-.35.79-.784a.787.787 0 0 0-.79-.783c-.436 0-.79.35-.79.783 0 .433.354.784.79.784zm.96-2.152a.35.35 0 0 0 .35-.348.349.349 0 0 0-.35-.347.349.349 0 0 0-.35.347.35.35 0 0 0 .35.348z"/><path d="M53.932 27.194a89.016 89.016 0 0 0-1.4-16.397s-.15-1.29-.87-.238a14.057 14.057 0 0 0-1.2 3.968 71.462 71.462 0 0 0-12.82.337c-.82-2.728-2.22-3.968-2.89-3.64-.67.327-.75 3.253-.75 3.253l-.33 14.046a143.942 143.942 0 0 1 20.26-1.33zm-9.93 4.315a2.036 2.036 0 0 1-.46.595c-.285.227-.635.36-1 .377a2.193 2.193 0 0 1-1.54-.437 1.995 1.995 0 0 1-.53-.446 1.001 1.001 0 0 0-.36-.248s.75 4.077 2.57 4.731c1.82.655 2.16-.753 2.21-1.13a5.55 5.55 0 0 0-.82-3.214c0-.298-.02-.1-.07-.228zm9.88-2.519a57.22 57.22 0 0 0-5.09 5.167 31.789 31.789 0 0 1-5.31 4.86c-.22-.525-1.63-1.507-1.63-1.507s-3.14-2.133-5.2-3.81a31.78 31.78 0 0 1-3.14-2.975l-2-.109a22.62 22.62 0 0 0 12 8.769c.86-.14 3.28-1.855 5.09-3.254a57.431 57.431 0 0 0 6-5.862 6.314 6.314 0 0 0 1.14-1.984c-1.14.377-1.86.704-1.86.704z" fill="#F06351"/><path d="M53.352 54.74c.13-1.062.2-2.47.24-4.028l-8.15 2.153a64.434 64.434 0 0 1-7.8 1.756l1.11 4.96c0 .108 0 .218.07.327a32.398 32.398 0 0 0 4.76 2.53 42.49 42.49 0 0 0 6.88-4.098v.06a15.117 15.117 0 0 0 2.89-3.66z" fill="#E55645"/><path d="M40.002 24.09c-.05-.1 1 .674 1.41.912.41.238.61.416.61.585 0 .169-.26.337-.62.337s-.92-.119-1-.258c-.08-.139.6 0 .94 0h.29a8.05 8.05 0 0 1-1.63-1.577zm7.5.108s-1 1.27-1.09 1.33c-.09.059-.17.337.19.287a8.146 8.146 0 0 0 1.22-.278c.11-.06.07-.198-.12-.178-.19.02-.68.05-1 .109l.85-1.26s.03-.119-.05-.01zm-3.14 6.061a2.292 2.292 0 0 0 1.09-.992c.28-.655 0-.903-.44-.992a2.46 2.46 0 0 0-1.75.337c-.39.367-.34.724 0 .992.337.263.707.483 1.1.655zm-2.06 2.381a3.52 3.52 0 0 1-2.35-1.419.148.148 0 0 1 0-.198.139.139 0 0 1 .1-.042.14.14 0 0 1 .1.042 3.209 3.209 0 0 0 2.11 1.3 2.121 2.121 0 0 0 1.64-.993l.14-.188.1.218s.38.754 1 .794c.62.04 1.06-.417 1.63-1.28a.144.144 0 0 1 .2-.04.143.143 0 0 1 .04.199c-.667.972-1.297 1.438-1.89 1.398a1.558 1.558 0 0 1-1.12-.724 2.255 2.255 0 0 1-1.7.933z"/><defs><linearGradient id="a" x1="0" y1="73" x2="0" y2="96" gradientUnits="userSpaceOnUse"><stop offset=".5" stop-opacity="0"/><stop offset="1"/></linearGradient><linearGradient id="c" x1="0" y1="69" x2="0" y2="94" gradientUnits="userSpaceOnUse"><stop stop-opacity="0"/><stop offset="1"/></linearGradient><filter id="b" x="13" y="69" width="63" height="31" filterUnits="userSpaceOnUse" color-interpolation-filters="sRGB"><feFlood flood-opacity="0" result="BackgroundImageFix"/><feBlend in="SourceGraphic" in2="BackgroundImageFix" result="shape"/><feGaussianBlur stdDeviation="2" result="effect1_foregroundBlur"/></filter><filter id="d" x="0" y="59" width="89" height="45" filterUnits="userSpaceOnUse" color-interpolation-filters="sRGB"><feFlood flood-opacity="0" result="BackgroundImageFix"/><feBlend in="SourceGraphic" in2="BackgroundImageFix" result="shape"/><feGaussianBlur stdDeviation="5" result="effect1_foregroundBlur"/></filter></defs></svg>
